<svg width="270" height="66" viewBox="0 0 270 66" fill="none" xmlns="http://www.w3.org/2000/svg">
<rect x="0.5" y="0.5" width="269" height="65" fill="#A1BBE4" fill-opacity="0.37"/>
<rect x="0.5" y="0.5" width="269" height="65" stroke="url(#paint0_linear_88_6)"/>
<path d="M103.312 37.26C103.246 37.414 103.246 37.788 103.246 38.03L103.224 38.822C104.874 38.822 107.58 38.778 108.966 38.712C108.944 38.096 108.944 37.502 108.944 36.974C108.878 36.6 107.976 36.094 107.36 35.962C107.008 35.896 107.03 35.544 107.316 35.478C108.262 35.302 109.274 35.434 110.132 35.72C110.638 35.896 110.968 36.006 110.814 36.446C110.77 36.578 110.748 36.754 110.748 36.952L110.638 41.594C110.638 42.232 110.374 43.728 109.582 43.728C109.34 43.728 109.054 43.508 108.988 43.002C107.514 43.068 104.61 43.09 102.96 43.156C102.784 43.662 102.498 44.102 102.08 44.102C101.882 44.102 101.552 43.904 101.552 43.222C101.552 42.21 101.508 38.954 101.442 37.788C101.332 37.458 100.716 36.908 99.946 36.754C99.594 36.688 99.616 36.358 99.902 36.292C100.716 36.182 101.662 36.248 102.432 36.49C102.894 36.644 103.466 36.798 103.312 37.26ZM102.058 26.568C102.388 26.524 102.696 26.436 102.938 26.282C103.18 26.128 103.334 26.106 103.664 26.106C104.016 26.106 104.83 26.194 105.138 26.326C105.38 26.436 105.512 26.634 105.512 26.92C105.512 27.162 105.336 27.558 104.544 27.558H101.816C101.596 28.548 101.244 29.494 100.782 30.396C101.376 30.858 101.838 31.232 102.3 31.496C102.718 31.738 102.96 31.76 103.246 31.826C103.554 31.892 103.884 32.09 104.236 32.42C104.83 32.948 105.27 33.762 105.27 34.4C105.27 35.082 104.39 34.862 104.104 34.576L100.32 31.188C99.176 33.036 97.548 34.334 95.612 35.28C94.886 35.632 94.446 34.95 95.106 34.532C97.504 32.86 99.264 30.506 99.858 27.602L98.934 27.668C98.472 27.734 98.252 27.778 97.966 27.932C97.79 27.998 97.68 28.042 97.636 28.042C97.13 28.042 96.03 27.558 95.568 27.206C95.282 27.008 95.216 26.876 95.216 26.722C95.216 26.59 95.304 26.524 95.502 26.524C95.986 26.524 96.558 26.678 98.648 26.678C99.682 26.678 101.332 26.7 102.058 26.568ZM110.968 25.446V29.604C110.968 31.43 110.814 33.19 110.528 34.048C110.374 34.51 110.132 34.73 109.802 34.73C109.472 34.73 109.164 34.466 109.164 32.992V30.682C106.986 30.858 106.392 31.034 106.15 31.144C106.04 31.21 105.93 31.254 105.82 31.254C105.402 31.254 104.588 30.88 104.06 30.44C103.84 30.264 103.73 30.11 103.73 29.978C103.73 29.868 103.818 29.802 104.016 29.802C104.456 29.802 105.138 29.912 106.084 29.912C106.722 29.912 108.108 29.868 109.164 29.692V25.094C108.944 24.808 107.8 24.192 106.81 23.906C106.656 23.862 106.59 23.774 106.59 23.664C106.59 23.488 106.766 23.334 107.184 23.334C108.504 23.334 109.648 23.554 110.726 23.884C111.012 23.972 111.144 24.126 111.144 24.368C111.144 24.61 110.968 25.006 110.968 25.446ZM108.988 42.056C108.988 41.242 108.988 40.45 108.966 39.636C107.558 39.636 104.896 39.724 103.202 39.79L103.158 42.012V42.166C104.808 42.166 107.602 42.122 108.988 42.056ZM129.853 35.896C128.357 35.896 127.037 35.896 125.695 35.918V39.35C125.695 40.758 125.651 42.54 125.299 43.486C125.123 44.036 124.881 44.3 124.551 44.3C124.221 44.3 123.913 44.014 123.913 42.672V35.962L121.053 36.05C120.349 36.072 119.689 36.138 119.315 36.204C118.941 36.27 118.501 36.38 118.237 36.578C118.127 36.644 117.995 36.688 117.885 36.688C117.291 36.688 115.883 36.05 115.113 35.412C114.959 35.28 114.871 35.148 114.871 35.038C114.871 34.884 114.959 34.796 115.157 34.796C115.531 34.796 116.213 34.862 116.741 34.928C117.379 34.994 119.293 35.06 122.395 35.06C124.155 35.06 126.773 35.016 129.699 34.84C130.051 34.818 130.337 34.774 130.557 34.664C130.909 34.488 131.437 34.29 131.943 34.29C132.405 34.29 133.175 34.334 133.703 34.51C134.033 34.62 134.187 34.84 134.187 35.214C134.187 35.588 133.945 35.962 133.219 35.962C132.097 35.962 130.975 35.896 129.853 35.896ZM117.929 32.904C116.917 33.212 116.411 32.508 117.467 32.046C119.667 31.034 123.429 28.482 124.199 26.172C124.089 25.93 123.737 25.666 123.407 25.468C122.989 25.226 122.681 25.116 122.439 24.962C122.241 24.874 122.153 24.764 122.153 24.632C122.153 24.434 122.395 24.324 122.879 24.324C123.473 24.324 124.155 24.544 124.683 24.72C125.299 24.918 125.761 25.16 126.113 25.402C126.729 25.864 126.619 26.194 126.157 26.898C125.871 27.36 125.541 27.778 125.189 28.196C126.047 28.548 126.905 28.9 127.631 29.164C128.225 29.406 128.555 29.428 128.797 29.428C129.149 29.428 129.545 29.428 129.875 29.582C130.469 29.868 130.975 30.176 131.393 30.55C132.075 31.144 132.251 31.496 132.251 31.848C132.251 32.178 132.053 32.31 131.811 32.31C131.547 32.31 131.393 32.266 131.063 32.112L124.507 28.922C122.593 30.836 119.997 32.31 117.929 32.904ZM141.985 31.606C144.449 31.606 146.231 33.102 146.231 35.214C146.231 37.326 144.449 38.822 141.985 38.822C139.521 38.822 137.739 37.326 137.739 35.214C137.739 33.102 139.521 31.606 141.985 31.606ZM151.137 25.446V32.97C151.467 32.97 151.775 32.948 151.929 32.926C152.171 32.904 152.369 32.838 152.567 32.684C152.897 32.442 153.161 32.288 153.579 32.288C153.931 32.288 154.569 32.332 155.031 32.508C155.361 32.618 155.515 32.816 155.515 33.146C155.515 33.498 155.251 33.806 154.635 33.806L151.137 33.872V38.624C151.137 40.208 151.093 44.08 149.971 44.08C149.641 44.08 149.333 43.794 149.333 42.452V25.094C149.091 24.786 148.101 24.258 147.155 23.972C146.605 23.796 146.649 23.334 147.265 23.334C148.673 23.334 149.817 23.554 150.895 23.884C151.665 24.126 151.137 24.83 151.137 25.446ZM141.985 32.662C140.643 32.662 139.565 33.696 139.565 35.214C139.565 36.776 140.643 37.744 141.985 37.744C143.305 37.744 144.471 36.754 144.471 35.214C144.471 33.696 143.305 32.662 141.985 32.662ZM144.317 29.208C144.647 29.142 144.911 29.098 145.197 28.922C145.395 28.812 145.637 28.746 145.923 28.746C146.275 28.746 147.089 28.834 147.397 28.966C147.639 29.076 147.771 29.274 147.771 29.56C147.771 29.802 147.595 30.198 146.803 30.198C143.283 30.198 140.005 30.308 139.059 30.374C138.597 30.44 138.377 30.484 138.091 30.638C137.915 30.704 137.805 30.748 137.761 30.748C137.255 30.748 136.155 30.264 135.693 29.912C135.407 29.714 135.341 29.582 135.341 29.428C135.341 29.296 135.429 29.23 135.627 29.23C136.111 29.23 136.683 29.384 138.773 29.384C139.763 29.384 143.613 29.318 144.317 29.208ZM141.545 26.15H143.569C144.295 26.15 144.669 26.37 144.669 26.81C144.669 27.272 144.317 27.514 143.635 27.514L141.017 27.58C140.115 27.602 139.301 26.986 138.685 26.37C138.267 25.952 138.509 25.6 139.015 25.776C139.873 26.106 140.665 26.15 141.545 26.15ZM164.852 27.712C165.38 27.646 165.292 27.404 165.82 27.404C166.59 27.404 167.294 27.448 167.8 27.69C168.13 27.844 168.042 28.218 167.8 28.394C167.646 28.548 167.492 28.658 167.404 28.988C166.238 33.432 162.586 37.084 158.45 39.262C158.032 39.504 157.724 39.482 157.57 39.24C157.46 39.042 157.526 38.756 157.9 38.492C161.42 36.094 164.786 32.508 165.38 28.636L162.234 28.79C161.618 28.834 161.156 28.966 160.826 29.164C160.716 29.23 160.606 29.274 160.496 29.274C160.1 29.274 159.11 28.812 158.582 28.526C158.164 28.284 157.878 28.13 157.878 27.888C157.878 27.756 157.988 27.69 158.208 27.69C158.912 27.69 159.792 27.844 161.288 27.844C162.63 27.844 163.73 27.8 164.852 27.712ZM172.926 25.446V38.624C172.926 40.208 172.882 44.08 171.76 44.08C171.43 44.08 171.122 43.794 171.122 42.452V25.094C170.88 24.786 169.89 24.258 168.944 23.972C168.394 23.796 168.438 23.334 169.054 23.334C170.462 23.334 171.606 23.554 172.684 23.884C173.454 24.126 172.926 24.83 172.926 25.446Z" fill="white"/>
<defs>
<linearGradient id="paint0_linear_88_6" x1="-3.75633e-08" y1="33" x2="270" y2="66" gradientUnits="userSpaceOnUse">
<stop stop-color="#EAF3F8"/>
<stop offset="1" stop-color="#22A5E2"/>
</linearGradient>
</defs>
</svg>
