<svg width="289" height="80" viewBox="0 0 289 80" fill="none" xmlns="http://www.w3.org/2000/svg">
<path d="M35.8537 73.4819C41.274 73.4884 47.9819 73.4111 53.3474 73.4401C53.4222 73.4405 53.4971 73.4409 53.5721 73.4413C55.7776 73.4531 57.9895 73.472 60.7005 73.4936C61.0426 73.4963 61.3946 73.4992 61.7558 73.502C64.9551 73.5272 68.9033 73.5559 74.2568 73.5805C82.1622 73.6165 89.3064 73.598 95.2578 73.5609C102.821 73.5136 108.401 73.4369 110.871 73.403C119.731 73.2814 129.176 73.2159 142.068 73.123C143.245 73.1145 144.456 73.1061 145.694 73.0971C146.697 73.0898 147.526 73.1365 147.551 73.2016C147.573 73.2667 146.78 73.3254 145.777 73.3327C144.565 73.3415 143.38 73.3501 142.229 73.3584C142.224 73.3584 142.219 73.3585 142.214 73.3585C129.242 73.452 119.999 73.5161 111.35 73.635C108.82 73.6697 103.06 73.7489 95.2591 73.7973C89.1815 73.8348 81.9032 73.8533 73.8492 73.8163C68.423 73.7914 64.4469 73.7624 61.2238 73.7369C60.8716 73.7341 60.5299 73.7313 60.199 73.7286C60.1912 73.7285 60.1834 73.7285 60.1757 73.7284C57.4451 73.7065 55.3161 73.6883 53.2148 73.6768C53.1705 73.6767 53.1262 73.6765 53.0819 73.6763C47.6539 73.6469 41.0748 73.7244 35.8172 73.7181C34.8173 73.7169 34.0073 73.6629 34.018 73.5976C34.0285 73.5324 34.854 73.4808 35.8537 73.4819ZM228.185 4.10991C224.863 4.13201 220.8 4.10886 216.658 4.06484C214.428 4.041 212.035 4.00915 209.863 3.9758C203.686 3.88151 198.023 3.76267 195.43 3.69741C192.808 3.63287 189.991 3.59516 186.565 3.55771C185.787 3.54918 184.974 3.54067 184.129 3.53182C181.337 3.50257 178.245 3.47027 174.872 3.42343C162.404 3.25088 154.28 3.18197 148.486 3.14101C147.285 3.13252 146.186 3.12536 145.146 3.11855C145.144 3.11854 145.142 3.11852 145.14 3.11851C141.214 3.09278 138.295 3.07373 135.599 3.0251C130.813 2.93866 126.898 2.86482 122.18 2.74418C115.675 2.57781 106.403 2.51776 100.363 2.54868C100.032 2.55039 99.6949 2.55231 99.3538 2.5541C94.9585 2.57674 89.6064 2.60509 81.5204 2.59419C74.8039 2.58515 68.9376 2.53578 63.7759 2.48308C62.2751 2.46781 60.8849 2.45255 59.529 2.43793C56.0712 2.40074 52.9867 2.3675 50.1442 2.35061C46.9417 2.33141 44.0134 2.31199 41.3629 2.29269C28.6381 2.19972 20.7044 2.08973 15.3642 1.98996C10.3753 1.89922 7.57697 1.80101 5.53477 1.77178C5.47412 1.77107 5.3825 1.77118 5.30663 1.77176C5.23418 1.77233 5.15871 1.77296 5.05804 1.77772C5.0092 1.78101 4.98188 1.77859 4.84302 1.79799C4.81017 1.80311 4.77254 1.80953 4.71991 1.82225C4.70669 1.82548 4.69246 1.82915 4.67686 1.83351C4.66875 1.83578 4.66205 1.83769 4.65145 1.84087C4.61403 1.85231 4.56947 1.86711 4.51064 1.89253C4.39987 1.9542 4.1897 1.99989 3.92349 2.41321C3.79766 2.61726 3.71746 2.95427 3.76948 3.24027C3.81701 3.52903 3.94506 3.72388 4.04409 3.84348C4.15 3.9685 4.22478 4.01919 4.23955 4.03218C4.26816 4.05439 4.29424 4.07273 4.31777 4.0883C4.36525 4.11964 4.4036 4.14094 4.43664 4.15811C4.50238 4.19189 4.54719 4.20946 4.58419 4.2235C4.6552 4.24993 4.70563 4.26314 4.73203 4.27038C4.88845 4.31058 4.94447 4.31828 5.02228 4.33432C5.15381 4.3602 5.26824 4.38251 5.3568 4.40365C5.39773 4.41336 5.43895 4.42472 5.44768 4.42868C5.45315 4.43077 5.44843 4.4308 5.42212 4.42141C5.3988 4.40798 5.32208 4.40214 5.1188 4.23403C5.12029 4.23621 5.11856 4.2356 5.11578 4.23362C5.04279 4.10008 5.22836 4.56207 5.26964 4.99191C5.33175 5.43709 5.37018 5.92397 5.40039 6.41064C5.45974 7.39373 5.48643 8.38917 5.5068 9.4067C5.54954 11.7596 5.55506 14.2017 5.55681 16.8754C5.55706 17.9799 5.55551 19.1304 5.55285 20.3329C5.54554 23.5427 5.56058 26.1082 5.60061 28.2109C5.61089 28.75 5.62354 29.2517 5.63783 29.7249C5.66915 30.7625 5.70811 31.6747 5.75128 32.5347C5.75212 32.5506 5.75295 32.5665 5.75379 32.5825C5.75987 32.7028 5.76589 32.8212 5.77206 32.9378C5.77673 33.0264 5.78183 33.1172 5.78666 33.2063C5.7894 33.2413 5.79157 33.2727 5.7933 33.2961C5.79466 33.3146 5.7957 33.329 5.79636 33.3383C5.79654 33.34 5.79672 33.3418 5.79689 33.3436C5.809 33.511 5.81765 33.6558 5.81947 33.6862C5.82261 33.7386 5.82512 33.7848 5.82647 33.8084C5.83356 33.9334 5.842 34.0913 5.84774 34.1982C5.86263 34.4747 5.88773 34.9473 5.932 35.6825C5.97309 36.3215 6.01768 36.9334 6.07606 37.6973C6.07976 37.7454 6.08346 37.7935 6.08718 37.8416C6.14423 38.5864 6.21358 39.4552 6.29508 40.543C6.36937 41.531 6.3783 42.4417 6.32133 42.5774C6.26429 42.7121 6.16564 42.026 6.09283 41.038C6.01741 40.0148 5.95244 39.2028 5.89452 38.4581C5.89082 38.411 5.88712 38.3638 5.88343 38.3167C5.82312 37.5404 5.76721 36.8026 5.71491 36.005C5.69736 35.7372 5.68026 35.4625 5.665 35.2049C5.636 34.7407 5.60297 34.2154 5.56695 33.5804C5.55984 33.455 5.55274 33.3248 5.54544 33.1903C5.49874 32.3317 5.45128 31.326 5.41435 30.2008C5.39383 29.574 5.37668 28.9253 5.3635 28.2144C5.32161 25.9383 5.3085 23.2046 5.3156 19.8573C5.31798 18.7098 5.31915 17.5987 5.31848 16.5133C5.31586 14.0416 5.30994 11.697 5.26738 9.41432C5.24627 8.38488 5.21871 7.3758 5.15659 6.38132C5.12548 5.89464 5.08432 5.39746 5.02051 4.96678C4.9894 4.75499 4.94808 4.55089 4.91167 4.429C4.89452 4.36899 4.87871 4.33404 4.88588 4.34294C4.88907 4.3485 4.94159 4.41036 4.95705 4.41785C5.25611 4.65885 5.32834 4.63891 5.35331 4.65685C5.38513 4.66729 5.38421 4.66524 5.37678 4.6628C5.35951 4.65678 5.31082 4.64455 5.25666 4.63278C5.14048 4.6071 5.02635 4.58813 4.81144 4.54353C4.77371 4.53541 4.7339 4.52663 4.68011 4.51255C4.66132 4.50715 4.58524 4.48936 4.47585 4.44701C4.41684 4.42306 4.34277 4.39491 4.21433 4.31604C4.18178 4.29566 4.14605 4.27179 4.10496 4.24086C4.0836 4.22466 4.06664 4.21153 4.03654 4.18611C3.97616 4.13459 3.9072 4.06944 3.83057 3.97321C3.68391 3.7936 3.48206 3.4246 3.50819 2.96399C3.53002 2.49959 3.77507 2.14671 3.94756 1.98039C4.31206 1.64874 4.46722 1.65133 4.5782 1.60438C4.60755 1.59553 4.62654 1.59048 4.64723 1.58519C4.68723 1.57507 4.71931 1.56842 4.74745 1.56309C4.8034 1.55264 4.844 1.54739 4.88055 1.54312C4.96428 1.53395 4.97959 1.53413 5.01225 1.53191C5.13975 1.52473 5.23208 1.52411 5.31995 1.52325C5.52723 1.52148 5.65682 1.52394 5.84067 1.52599C6.16169 1.53088 6.47894 1.53836 6.8449 1.5468C8.85315 1.59838 11.2106 1.67454 15.8339 1.7605C20.9496 1.85594 28.7024 1.96403 41.3648 2.05635C43.957 2.07519 46.8333 2.09424 49.9662 2.11302C52.9628 2.13084 56.2385 2.16625 59.7658 2.20416C61.0792 2.21837 62.4337 2.23277 63.8413 2.2471C68.9191 2.29894 74.6106 2.3468 81.0892 2.35547C88.9859 2.36605 94.2026 2.33869 98.5787 2.31614C98.7308 2.31531 98.8799 2.31445 99.0295 2.31359C99.2153 2.31261 99.3999 2.31163 99.5829 2.31068C106.019 2.27769 115.878 2.33935 123.07 2.52324C127.579 2.63858 131.326 2.70946 136.087 2.79545C138.434 2.83778 140.928 2.85403 144.778 2.87936C145.858 2.88648 147.033 2.8944 148.356 2.90375C154.255 2.94544 162.505 3.0153 175.109 3.18979C178.381 3.2352 181.332 3.26606 184.11 3.29516C184.973 3.30419 185.813 3.31311 186.632 3.32207C190.072 3.35968 193.244 3.40055 196.247 3.47497C198.649 3.53556 204.136 3.65123 210.143 3.74299C212.264 3.77564 214.571 3.80608 216.66 3.82845C220.608 3.87041 224.251 3.89038 227.236 3.87122C227.701 3.86793 228.182 3.86493 228.679 3.86206C232.821 3.83589 237.06 3.81196 240.468 3.73573C247.167 3.49346 256.27 3.48605 265.828 3.62469C268.601 3.63308 271.414 3.67012 274.246 3.77892C275.67 3.83522 277.08 3.90689 278.518 4.02909C279.233 4.09114 279.961 4.1648 280.707 4.27784C281.087 4.33657 281.462 4.40106 281.888 4.50751C282.11 4.56479 282.319 4.62083 282.615 4.74015C282.748 4.7964 282.918 4.86764 283.148 5.02086C283.336 5.17988 283.797 5.37819 284.024 6.30832C284.651 9.10108 284.693 11.94 284.782 14.5614C284.878 18.4729 284.932 22.1919 284.998 25.5808C285.002 25.8208 285.007 26.0602 285.011 26.2992C285.062 28.914 285.111 31.4499 285.179 33.8633C285.296 37.9436 285.526 41.8427 285.54 45.387C285.635 55.2506 285.544 62.594 285.373 66.6065C285.35 67.1303 285.324 67.6033 285.29 68.0244C285.269 68.2902 285.245 68.5313 285.217 68.7539C285.192 68.9556 285.165 69.1383 285.134 69.3102C285.018 69.9372 284.848 70.6532 284.358 71.377C283.87 72.1124 283.072 72.6074 282.425 72.8367C281.12 73.2883 280.087 73.3021 279.054 73.3645C278.943 73.3694 278.822 73.374 278.714 73.3777C277.446 73.4191 276.191 73.4116 274.828 73.4043C273.874 73.3984 272.872 73.3894 271.801 73.3767C262.187 73.2564 254.359 73.1217 247.58 72.9939C246.325 72.9697 245.105 72.945 243.914 72.9195C243.91 72.9194 243.907 72.9193 243.903 72.9192C243.451 72.9095 242.987 72.8993 242.551 72.8894C237.862 72.7741 233.717 72.6777 229.706 72.6632C221.731 72.6271 216.302 72.6818 212.109 72.7126C210.803 72.7236 209.547 72.735 208.434 72.7458C207.971 72.7502 207.512 72.7545 207.053 72.7589C205.155 72.7773 203.369 72.7943 201.542 72.8078C197.347 72.8391 193.475 72.8804 189.661 72.9215C189.325 72.9252 188.987 72.9287 188.649 72.9324C184.518 72.977 180.425 73.021 176.098 73.0517C175.1 73.0588 174.263 73.0116 174.242 72.9465C174.221 72.8814 175.023 72.8229 176.021 72.8158C180.225 72.7859 184.216 72.7432 188.346 72.6985C188.687 72.6948 189.028 72.691 189.368 72.6873C193.172 72.6462 197.114 72.6044 201.388 72.5725C203.258 72.5586 205.062 72.5412 207.052 72.5219C207.375 72.5188 207.7 72.5157 208.029 72.5126C209.172 72.5015 210.455 72.4897 211.815 72.4781C216.101 72.4463 221.567 72.3908 229.633 72.4262C233.652 72.4403 237.806 72.5358 242.556 72.6529C242.929 72.6614 243.337 72.6704 243.719 72.6787C244.917 72.7046 246.149 72.7294 247.419 72.754C254.215 72.8826 262.084 73.0183 271.749 73.1396C272.839 73.1525 273.854 73.1616 274.83 73.1675C276.05 73.1739 277.194 73.1803 278.378 73.1504C278.5 73.1473 278.619 73.1437 278.735 73.1396C279.764 73.0898 280.768 73.0787 282.039 72.717C282.658 72.531 283.441 72.1625 283.997 71.4657C284.553 70.7725 284.756 70.0133 284.883 69.3705C284.95 69.0175 285.006 68.5876 285.047 68.0993C285.085 67.6547 285.112 67.1533 285.137 66.596C285.309 62.5629 285.399 55.2216 285.304 45.3901C285.29 41.8468 285.06 37.9571 284.943 33.8705C284.875 31.4364 284.825 28.8801 284.774 26.244C284.773 26.1786 284.771 26.1132 284.77 26.0477C284.687 21.679 284.621 17.8951 284.53 14.5689C284.432 11.5189 284.311 8.72396 283.752 6.35917C283.711 6.13372 283.621 5.93442 283.521 5.78001C283.435 5.64721 283.347 5.5483 283.26 5.46478C283.096 5.31003 282.973 5.2352 282.861 5.16867C282.651 5.04909 282.495 4.98976 282.338 4.93281C282.056 4.83394 281.801 4.77259 281.576 4.72292C281.111 4.62257 280.693 4.56085 280.28 4.50637C279.465 4.40117 278.697 4.33671 277.97 4.28446C276.51 4.18206 275.188 4.1324 273.951 4.09813C270.752 4.01526 268.105 4.00547 265.825 3.99718C264.71 3.99437 263.693 3.97456 262.718 3.95777C262.175 3.94821 261.629 3.9386 261.142 3.93026C258.976 3.89309 257.272 3.86859 255.56 3.85874C250.367 3.83036 246.702 3.8674 242.179 3.96568C238.395 4.05 233.731 4.07593 229.651 4.10111C229.645 4.10114 229.638 4.10118 229.632 4.10121C229.148 4.10419 228.664 4.10701 228.185 4.10991ZM6.76998 54.803C6.73583 55.799 6.64674 56.597 6.58221 56.5852C6.51727 56.5723 6.50122 55.754 6.53509 54.7589C6.61503 52.3903 6.65338 50.0175 6.59565 47.671C6.58986 47.4412 6.5862 47.2246 6.58471 47.0279C6.57892 46.3542 6.60201 45.8858 6.65244 45.8907C6.70185 45.8961 6.76352 46.3587 6.80383 47.02C6.81666 47.2275 6.8267 47.4573 6.83274 47.701C6.88956 50.0545 6.85053 52.4308 6.76998 54.803ZM232.376 5.3285C231.367 5.33122 230.421 5.28023 230.2 5.21405C229.987 5.14801 230.574 5.09154 231.558 5.08848C232.09 5.08697 232.958 5.08332 234.07 5.07802C239.458 5.05962 251.327 4.989 265.818 5.11671C271.152 5.36726 276.639 4.27634 282.694 6.55713C283.311 9.16156 283.39 11.9006 283.502 14.5994C283.504 14.6658 283.506 14.7328 283.509 14.8004C283.578 16.9038 283.628 18.7877 283.676 20.5811C283.793 24.9042 283.918 28.7518 284.114 33.8958C284.224 37.0759 284.509 40.7614 284.555 45.4C284.572 46.5617 284.584 47.7914 284.591 49.0853C284.61 54.9073 284.616 60.7287 284.385 66.5623C284.324 67.6289 284.316 68.685 283.992 69.8356C283.828 70.3987 283.49 71.0297 282.946 71.4308C282.412 71.8337 281.81 72.0074 281.259 72.1209C279.034 72.496 276.956 72.3579 274.837 72.3632C264.086 72.2366 253.322 72.0276 242.578 71.758C230.741 71.3401 218.908 71.4729 207.046 71.4934C178.031 71.6143 148.964 71.8344 119.946 72.1228C111.705 72.2053 103.467 72.2745 95.2509 72.3304C85.6936 72.3953 76.1766 72.442 66.5992 72.4732C51.7571 72.532 24.5561 72.4223 18.1532 72.4063C17.149 72.4044 16.3437 72.3499 16.3539 72.2846C16.3647 72.2194 17.1862 72.1682 18.1899 72.1702C24.5474 72.1859 51.6582 72.2956 66.4438 72.2373C76.0763 72.206 85.6392 72.1591 95.2495 72.0938C103.377 72.0384 111.533 71.9699 119.684 71.8884C148.77 71.5995 177.931 71.3149 207.044 71.1261C218.905 71.0783 230.747 70.9174 242.589 71.311C253.331 71.5582 264.098 71.7478 274.841 71.8607C276.95 71.8552 279.062 71.9798 281.158 71.6212C282.194 71.4682 283.26 70.768 283.501 69.6867C283.794 68.6528 283.812 67.5956 283.87 66.5393C284.096 60.7017 284.087 54.8483 284.068 49.0075C284.061 47.7412 284.051 46.5407 284.039 45.4069C284.008 40.7473 283.768 37.0801 283.708 33.9081C283.596 28.9233 283.562 25.187 283.447 20.9199C283.4 19.1208 283.349 17.229 283.281 15.1089C283.276 14.9382 283.27 14.7699 283.265 14.6065C283.152 11.9083 283.074 9.18785 282.46 6.60087C276.842 4.72747 271.072 5.5424 265.816 5.3564C251.822 5.23473 240.308 5.29903 234.985 5.31783C233.767 5.32242 232.943 5.32701 232.376 5.3285ZM185.692 4.80414C174.455 4.72652 158.555 4.5634 144.624 4.42262C137.831 4.3539 131.521 4.29027 126.465 4.24431C118.634 4.17314 113.707 4.07745 108.817 3.98249C108.765 3.98149 108.712 3.98049 108.66 3.97949C103.791 3.88478 98.8783 3.79065 90.9327 3.71935C82.9105 3.64737 71.8177 3.59877 60.6341 3.55011C60.6254 3.55005 60.6168 3.54998 60.6082 3.54991C54.011 3.52118 47.3619 3.5343 41.3532 3.53462C37.1614 3.53439 33.3213 3.52737 30.0366 3.49629C24.9888 3.44872 20.4111 3.39894 16.024 3.34747C13.8621 3.32215 11.7733 3.29634 9.77016 3.27318C8.76673 3.2618 7.80322 3.25071 6.83889 3.24404C6.32434 3.24131 5.8881 3.23759 5.40646 3.24509C5.29099 3.24752 5.16571 3.2501 5.08114 3.25953C5.07239 3.26051 5.06898 3.26198 5.08123 3.25847C5.08533 3.24526 5.1366 3.28532 5.22286 3.11676C5.25879 3.02243 5.20774 2.91719 5.17753 2.88946C5.13843 2.8499 5.14723 2.86219 5.13622 2.85317C5.10847 2.83535 5.10171 2.83519 5.09916 2.83384C5.10533 2.83592 5.12713 2.84143 5.15585 2.84732C5.20744 2.85801 5.26956 2.86902 5.32325 2.87868C5.44015 2.8996 5.55655 2.92008 5.67715 2.94607C5.81076 2.9852 5.88505 2.9612 6.10846 3.10934C7.37234 5.27291 6.88427 7.38477 7.06725 9.35708C7.21645 17.3249 7.11206 23.5458 7.13364 28.1881C7.13756 29.5714 7.15429 30.797 7.1789 31.9054C7.26991 36.7736 7.76596 41.8247 7.92371 46.9797C8.13548 55.1923 7.52622 63.6493 6.70924 71.7812C6.69856 71.8802 6.76823 71.9578 6.86778 71.9605C9.89837 72.0473 12.8931 72.1452 15.8274 72.26C17.5725 72.3597 14.623 72.4766 11.4047 72.3562C11.2885 72.3523 11.1722 72.3483 11.056 72.3444C9.94904 72.3072 8.98038 72.2756 7.61616 72.2375C7.35642 72.231 7.10541 72.2248 6.86227 72.2189C6.60474 72.2119 6.42452 72.0111 6.45214 71.755C6.61316 70.1809 6.72431 68.8924 6.82047 67.7473C6.96594 65.6536 7.89869 56.1475 7.68055 46.9885C7.4798 40.7682 6.92994 34.7028 6.92345 31.1943C6.90755 30.2949 6.89325 29.2955 6.88471 28.1918C6.84 23.705 6.88062 17.4931 6.66908 9.36974C6.51682 7.47669 6.79423 5.08418 5.81681 3.44078C5.84029 3.45214 5.68418 3.39685 5.58683 3.38042C5.47847 3.35768 5.36722 3.33864 5.24993 3.3184C5.19716 3.30926 5.13164 3.29808 5.07197 3.28624C5.03147 3.27759 5.022 3.27748 4.9604 3.25914C4.9448 3.25387 4.92917 3.24893 4.90334 3.23484C4.88129 3.21632 4.90407 3.25453 4.82448 3.16287C4.78753 3.12106 4.77207 2.99496 4.81772 2.93214C4.85781 2.86917 4.89314 2.85621 4.91428 2.84444C5.00707 2.8094 4.982 2.82414 5.01372 2.81671C5.16068 2.79904 5.26639 2.79949 5.38923 2.79538C5.87968 2.78474 6.31402 2.78581 6.83009 2.78581C7.79468 2.78706 8.75251 2.79295 9.7579 2.79943C11.7589 2.81277 13.8505 2.82987 16.0191 2.84796C20.4187 2.88496 25.0256 2.92619 30.1255 2.97424C33.3758 3.00498 37.1819 3.05975 41.3565 3.1165C47.2474 3.19709 53.7878 3.2832 60.377 3.3119C60.4072 3.31204 60.4374 3.31218 60.4676 3.31232C71.5611 3.36055 82.7698 3.40962 90.924 3.48279C99.1601 3.55669 104.286 3.65525 109.226 3.75128C109.274 3.75224 109.323 3.75321 109.371 3.75417C114.212 3.84823 118.916 3.93951 126.457 4.00804C131.623 4.05501 138.006 4.11901 144.843 4.18819C158.716 4.32844 174.393 4.48967 185.535 4.5666C186.536 4.57352 187.375 4.63232 187.418 4.69793C187.46 4.7635 186.692 4.811 185.692 4.80414ZM185.449 6.27436C153.95 6.26982 122.277 5.9442 91.2246 5.42255C83.1138 5.34976 71.8034 5.24267 60.518 5.13594C60.392 5.13466 60.2661 5.13339 60.1405 5.13211C53.6504 5.07073 47.1822 5.00964 41.3421 4.95522C37.0698 4.9155 33.1698 4.87844 29.854 4.84705C24.8492 4.79984 20.3191 4.75421 15.9492 4.70906C13.7994 4.68693 11.7229 4.66492 9.73336 4.64603C8.73266 4.63675 7.7803 4.62794 6.82468 4.6236C6.31724 4.62196 5.8755 4.61977 5.43327 4.6279C5.37614 4.62916 5.33589 4.63028 5.29428 4.63189C5.25359 4.63237 5.18147 4.64123 5.278 4.62938C5.29547 4.62679 5.31926 4.62308 5.35559 4.61554C5.37383 4.61172 5.3953 4.60691 5.4217 4.60012C5.47751 4.57984 5.37306 4.63203 5.68274 4.50709C5.81401 4.43548 6.04576 4.36102 6.34812 3.93804C6.69262 3.53224 6.66835 2.5526 6.38514 2.20447C6.26415 2.00762 6.14747 1.89646 6.05665 1.81728C6.00508 1.77357 5.98484 1.75896 5.95267 1.73535C5.89392 1.69299 5.84583 1.66374 5.80458 1.64031C5.64269 1.55149 5.57752 1.53566 5.5282 1.51785C5.37959 1.47365 5.43559 1.49324 5.43178 1.49072C5.45161 1.49493 5.5128 1.50594 5.56341 1.51483C5.67939 1.53538 5.80862 1.55738 5.96589 1.59076C6.04299 1.60736 6.13512 1.62804 6.24719 1.66032C6.39926 1.73033 6.44493 1.63442 7.02447 2.06834C8.07486 3.11862 7.98811 3.91099 8.13827 4.49504C8.23563 5.10712 8.2837 5.65901 8.32525 6.20207C8.40455 7.28662 8.44132 8.30768 8.47124 9.31243C8.6466 17.3091 8.5691 23.5184 8.6025 28.1663C8.61023 29.6306 8.63127 30.927 8.65835 32.0798C8.93107 40.2516 9.22813 42.5971 9.34069 46.0121C9.34442 46.1053 9.34819 46.2016 9.35173 46.2937C9.35216 46.2997 9.35259 46.3058 9.35303 46.3119C9.36062 46.4276 9.36611 46.5258 9.36878 46.5765C9.37424 46.6798 9.37793 46.7648 9.37932 46.7966C9.38163 46.8496 9.38345 46.8967 9.3846 46.9272C9.38504 46.9388 9.38538 46.9479 9.3856 46.954C9.38894 47.0426 9.3923 47.1445 9.39428 47.2104C9.41733 47.8342 9.44391 49.7524 9.41625 51.2714C9.39135 52.8275 9.34775 53.9342 9.2954 55.099C9.28998 55.2169 9.28445 55.3348 9.27882 55.4527C9.2283 56.5024 9.16753 57.6427 9.06549 59.2834C9.00284 60.285 8.89934 60.9911 8.84243 60.8643C8.78531 60.7372 8.79485 59.8258 8.85516 58.8275C8.95932 57.1025 9.02025 55.8888 9.06745 54.8351C9.07267 54.7182 9.07777 54.6012 9.08276 54.4843C9.12912 53.3695 9.16322 52.3945 9.18262 51.0161C9.19924 49.39 9.17979 48.0955 9.13903 46.936C9.12965 46.6721 9.12027 46.4245 9.11037 46.1759C9.0044 42.6402 8.65013 39.9499 8.40251 31.3791C8.38441 30.4257 8.37017 29.3587 8.36443 28.1698C8.33264 23.6706 8.41197 17.4793 8.23505 9.31994C8.20532 8.32053 8.16866 7.30293 8.09005 6.22556C8.04889 5.68585 8.00111 5.1383 7.9058 4.53771C7.7632 3.96298 7.82872 3.20111 6.86838 2.24573C6.37209 1.873 6.3218 1.95005 6.18483 1.88825C6.08068 1.85813 5.99505 1.83879 5.92071 1.82272C5.77055 1.79073 5.64511 1.76924 5.52846 1.7486C5.47735 1.73961 5.41538 1.72855 5.38911 1.72316C5.37723 1.7213 5.35542 1.71411 5.42024 1.7318C5.44618 1.73976 5.48314 1.74932 5.56633 1.78499C5.60871 1.80386 5.66336 1.82866 5.74625 1.88076C5.78972 1.90887 5.83029 1.93539 5.90155 1.99554C6.03579 2.11717 6.36261 2.41116 6.38294 3.02839C6.38661 3.65716 5.99032 4.03428 5.82123 4.15271C5.62899 4.28901 5.5253 4.31746 5.45081 4.34521C5.36038 4.37396 5.37794 4.36692 5.34815 4.37497C5.30793 4.38476 5.2822 4.38931 5.26319 4.39254C5.15377 4.40749 5.23771 4.39623 5.27518 4.3962C5.32405 4.39421 5.35921 4.39326 5.41675 4.39192C5.85737 4.38348 6.3023 4.38568 6.80301 4.38724C7.76186 4.39149 8.69574 4.40017 9.69831 4.40942C11.6767 4.42818 13.7481 4.45014 15.8977 4.47228C20.271 4.51748 24.8046 4.56322 29.8451 4.61077C33.1661 4.64221 37.0699 4.6793 41.3439 4.71904C47.191 4.77351 53.6633 4.83464 60.1501 4.89598C60.2792 4.89719 60.4085 4.89839 60.538 4.8996C71.8305 5.0064 83.1236 5.11366 91.216 5.18628C122.737 5.46945 153.61 5.59686 185.289 6.03679C191.122 6.07695 196.418 6.11886 201.382 6.15899C206.919 6.20376 211.955 6.24543 216.637 6.27791C224.352 6.33178 231.1 6.36187 237.663 6.34497C239.981 6.34046 246.088 6.3746 254.908 6.47007C257.513 6.49902 260.326 6.53635 263.389 6.58667C264.168 6.59872 264.983 6.61026 265.808 6.61233C268.317 6.62036 270.973 6.64528 273.743 6.73296C275.122 6.77801 276.545 6.8381 277.971 6.94338C278.686 6.99709 279.401 7.06132 280.1 7.15595C280.441 7.20246 280.795 7.25966 281.099 7.32926C281.251 7.36388 281.396 7.40468 281.486 7.43837C281.528 7.45338 281.559 7.47145 281.529 7.45346C281.516 7.41427 281.317 7.43189 281.153 6.84533C281.688 9.08641 281.784 11.4234 281.899 13.9154C281.909 14.1694 281.917 14.3975 281.925 14.6463C281.986 16.4423 282.031 18.1004 282.074 19.6781C282.201 24.2749 282.283 28.2933 282.452 33.9464C282.539 37.1598 282.8 40.8216 282.837 45.4227C282.848 46.2654 282.857 47.1433 282.863 48.0543C282.887 53.3665 282.92 59.7776 282.661 66.4853C282.611 67.4952 282.566 68.5418 282.349 69.3035C282.236 69.6845 282.105 69.8957 281.919 70.0428C281.733 70.1964 281.382 70.334 280.956 70.4206C279.172 70.7424 276.956 70.6385 274.852 70.6354C262.94 70.4933 251.054 70.2413 242.621 70.0202C242.228 70.0096 241.87 69.9996 241.495 69.989C233.399 69.728 228.8 69.7286 225.564 69.7004C224.663 69.6945 223.856 69.6899 223.144 69.6862C221.25 69.6766 219.749 69.6716 217.827 69.6718C214.006 69.6726 210.463 69.6839 207.037 69.7007C198.082 69.7457 189.734 69.8278 178.181 69.9497C177.176 69.9603 176.299 69.9164 176.227 69.8518C176.151 69.7871 176.897 69.7261 177.906 69.7154C189.507 69.593 197.939 69.5098 207.035 69.4643C210.491 69.4474 214.059 69.436 217.917 69.4353C219.917 69.4352 221.526 69.4409 223.454 69.451C224.164 69.4548 224.919 69.4593 225.795 69.4651C228.964 69.493 233.536 69.4955 241.585 69.755C241.936 69.7649 242.262 69.774 242.627 69.7839C251.042 70.0046 262.937 70.2569 274.854 70.399C276.953 70.4033 279.186 70.5017 280.908 70.1892C281.316 70.1069 281.632 69.9755 281.772 69.8581C281.909 69.7479 282.016 69.5936 282.122 69.2372C282.326 68.5268 282.376 67.4799 282.425 66.4747C282.683 59.7927 282.65 53.3939 282.627 48.1006C282.62 47.1733 282.612 46.2808 282.601 45.4259C282.563 40.8129 282.302 37.1627 282.216 33.9536C282.051 28.4675 281.97 24.5423 281.846 20.0155C281.801 18.3434 281.753 16.5867 281.688 14.6534C281.684 14.5079 281.678 14.3643 281.673 14.2225C281.559 11.6272 281.471 9.2026 280.92 6.88892C280.985 7.22835 281.153 7.4278 281.235 7.5146C281.337 7.61716 281.37 7.63152 281.403 7.65466C281.454 7.68524 281.435 7.67138 281.401 7.65979C281.328 7.63236 281.19 7.59299 281.044 7.55997C280.752 7.49303 280.403 7.43645 280.066 7.39055C279.375 7.29703 278.662 7.23299 277.95 7.17955C276.528 7.0747 275.108 7.01472 273.73 6.96978C270.964 6.88232 268.311 6.85747 265.807 6.84947C265.067 6.84753 264.351 6.83843 263.643 6.82771C260.582 6.77779 257.765 6.73922 255.187 6.71049C246.198 6.61257 240.466 6.58229 238.476 6.58549C231.626 6.60202 224.602 6.57033 216.635 6.51454C211.85 6.48126 206.746 6.43903 201.194 6.39414C196.287 6.35445 191.095 6.31324 185.449 6.27436ZM120.614 70.3013C121.612 70.2913 122.482 70.3357 122.553 70.4004C122.624 70.4651 121.87 70.5257 120.872 70.5357C115.586 70.5888 111.772 70.6279 108.808 70.658C103.306 70.7138 100.648 70.7399 96.6614 70.7611C96.1852 70.7636 95.7121 70.7661 95.2421 70.7685C85.4587 70.8194 76.0521 70.8607 67.5355 70.8891C52.6936 70.9392 40.599 70.948 34.2002 70.9399C33.1945 70.9387 32.3941 70.8845 32.402 70.8193C32.4157 70.7541 33.2316 70.7025 34.2369 70.7037C40.5905 70.7117 52.5936 70.7032 67.3789 70.6534C75.9268 70.6251 85.3764 70.5834 95.2408 70.532C95.6952 70.5297 96.1526 70.5273 96.6129 70.5249C100.483 70.5043 102.986 70.48 108.367 70.4255C111.331 70.3954 115.188 70.3557 120.614 70.3013Z" fill="url(#paint0_linear_58_33)"/>
<path d="M106.812 42.26C106.746 42.414 106.746 42.788 106.746 43.03L106.724 43.822C108.374 43.822 111.08 43.778 112.466 43.712C112.444 43.096 112.444 42.502 112.444 41.974C112.378 41.6 111.476 41.094 110.86 40.962C110.508 40.896 110.53 40.544 110.816 40.478C111.762 40.302 112.774 40.434 113.632 40.72C114.138 40.896 114.468 41.006 114.314 41.446C114.27 41.578 114.248 41.754 114.248 41.952L114.138 46.594C114.138 47.232 113.874 48.728 113.082 48.728C112.84 48.728 112.554 48.508 112.488 48.002C111.014 48.068 108.11 48.09 106.46 48.156C106.284 48.662 105.998 49.102 105.58 49.102C105.382 49.102 105.052 48.904 105.052 48.222C105.052 47.21 105.008 43.954 104.942 42.788C104.832 42.458 104.216 41.908 103.446 41.754C103.094 41.688 103.116 41.358 103.402 41.292C104.216 41.182 105.162 41.248 105.932 41.49C106.394 41.644 106.966 41.798 106.812 42.26ZM105.558 31.568C105.888 31.524 106.196 31.436 106.438 31.282C106.68 31.128 106.834 31.106 107.164 31.106C107.516 31.106 108.33 31.194 108.638 31.326C108.88 31.436 109.012 31.634 109.012 31.92C109.012 32.162 108.836 32.558 108.044 32.558H105.316C105.096 33.548 104.744 34.494 104.282 35.396C104.876 35.858 105.338 36.232 105.8 36.496C106.218 36.738 106.46 36.76 106.746 36.826C107.054 36.892 107.384 37.09 107.736 37.42C108.33 37.948 108.77 38.762 108.77 39.4C108.77 40.082 107.89 39.862 107.604 39.576L103.82 36.188C102.676 38.036 101.048 39.334 99.112 40.28C98.386 40.632 97.946 39.95 98.606 39.532C101.004 37.86 102.764 35.506 103.358 32.602L102.434 32.668C101.972 32.734 101.752 32.778 101.466 32.932C101.29 32.998 101.18 33.042 101.136 33.042C100.63 33.042 99.53 32.558 99.068 32.206C98.782 32.008 98.716 31.876 98.716 31.722C98.716 31.59 98.804 31.524 99.002 31.524C99.486 31.524 100.058 31.678 102.148 31.678C103.182 31.678 104.832 31.7 105.558 31.568ZM114.468 30.446V34.604C114.468 36.43 114.314 38.19 114.028 39.048C113.874 39.51 113.632 39.73 113.302 39.73C112.972 39.73 112.664 39.466 112.664 37.992V35.682C110.486 35.858 109.892 36.034 109.65 36.144C109.54 36.21 109.43 36.254 109.32 36.254C108.902 36.254 108.088 35.88 107.56 35.44C107.34 35.264 107.23 35.11 107.23 34.978C107.23 34.868 107.318 34.802 107.516 34.802C107.956 34.802 108.638 34.912 109.584 34.912C110.222 34.912 111.608 34.868 112.664 34.692V30.094C112.444 29.808 111.3 29.192 110.31 28.906C110.156 28.862 110.09 28.774 110.09 28.664C110.09 28.488 110.266 28.334 110.684 28.334C112.004 28.334 113.148 28.554 114.226 28.884C114.512 28.972 114.644 29.126 114.644 29.368C114.644 29.61 114.468 30.006 114.468 30.446ZM112.488 47.056C112.488 46.242 112.488 45.45 112.466 44.636C111.058 44.636 108.396 44.724 106.702 44.79L106.658 47.012V47.166C108.308 47.166 111.102 47.122 112.488 47.056ZM133.353 40.896C131.857 40.896 130.537 40.896 129.195 40.918V44.35C129.195 45.758 129.151 47.54 128.799 48.486C128.623 49.036 128.381 49.3 128.051 49.3C127.721 49.3 127.413 49.014 127.413 47.672V40.962L124.553 41.05C123.849 41.072 123.189 41.138 122.815 41.204C122.441 41.27 122.001 41.38 121.737 41.578C121.627 41.644 121.495 41.688 121.385 41.688C120.791 41.688 119.383 41.05 118.613 40.412C118.459 40.28 118.371 40.148 118.371 40.038C118.371 39.884 118.459 39.796 118.657 39.796C119.031 39.796 119.713 39.862 120.241 39.928C120.879 39.994 122.793 40.06 125.895 40.06C127.655 40.06 130.273 40.016 133.199 39.84C133.551 39.818 133.837 39.774 134.057 39.664C134.409 39.488 134.937 39.29 135.443 39.29C135.905 39.29 136.675 39.334 137.203 39.51C137.533 39.62 137.687 39.84 137.687 40.214C137.687 40.588 137.445 40.962 136.719 40.962C135.597 40.962 134.475 40.896 133.353 40.896ZM121.429 37.904C120.417 38.212 119.911 37.508 120.967 37.046C123.167 36.034 126.929 33.482 127.699 31.172C127.589 30.93 127.237 30.666 126.907 30.468C126.489 30.226 126.181 30.116 125.939 29.962C125.741 29.874 125.653 29.764 125.653 29.632C125.653 29.434 125.895 29.324 126.379 29.324C126.973 29.324 127.655 29.544 128.183 29.72C128.799 29.918 129.261 30.16 129.613 30.402C130.229 30.864 130.119 31.194 129.657 31.898C129.371 32.36 129.041 32.778 128.689 33.196C129.547 33.548 130.405 33.9 131.131 34.164C131.725 34.406 132.055 34.428 132.297 34.428C132.649 34.428 133.045 34.428 133.375 34.582C133.969 34.868 134.475 35.176 134.893 35.55C135.575 36.144 135.751 36.496 135.751 36.848C135.751 37.178 135.553 37.31 135.311 37.31C135.047 37.31 134.893 37.266 134.563 37.112L128.007 33.922C126.093 35.836 123.497 37.31 121.429 37.904ZM145.485 36.606C147.949 36.606 149.731 38.102 149.731 40.214C149.731 42.326 147.949 43.822 145.485 43.822C143.021 43.822 141.239 42.326 141.239 40.214C141.239 38.102 143.021 36.606 145.485 36.606ZM154.637 30.446V37.97C154.967 37.97 155.275 37.948 155.429 37.926C155.671 37.904 155.869 37.838 156.067 37.684C156.397 37.442 156.661 37.288 157.079 37.288C157.431 37.288 158.069 37.332 158.531 37.508C158.861 37.618 159.015 37.816 159.015 38.146C159.015 38.498 158.751 38.806 158.135 38.806L154.637 38.872V43.624C154.637 45.208 154.593 49.08 153.471 49.08C153.141 49.08 152.833 48.794 152.833 47.452V30.094C152.591 29.786 151.601 29.258 150.655 28.972C150.105 28.796 150.149 28.334 150.765 28.334C152.173 28.334 153.317 28.554 154.395 28.884C155.165 29.126 154.637 29.83 154.637 30.446ZM145.485 37.662C144.143 37.662 143.065 38.696 143.065 40.214C143.065 41.776 144.143 42.744 145.485 42.744C146.805 42.744 147.971 41.754 147.971 40.214C147.971 38.696 146.805 37.662 145.485 37.662ZM147.817 34.208C148.147 34.142 148.411 34.098 148.697 33.922C148.895 33.812 149.137 33.746 149.423 33.746C149.775 33.746 150.589 33.834 150.897 33.966C151.139 34.076 151.271 34.274 151.271 34.56C151.271 34.802 151.095 35.198 150.303 35.198C146.783 35.198 143.505 35.308 142.559 35.374C142.097 35.44 141.877 35.484 141.591 35.638C141.415 35.704 141.305 35.748 141.261 35.748C140.755 35.748 139.655 35.264 139.193 34.912C138.907 34.714 138.841 34.582 138.841 34.428C138.841 34.296 138.929 34.23 139.127 34.23C139.611 34.23 140.183 34.384 142.273 34.384C143.263 34.384 147.113 34.318 147.817 34.208ZM145.045 31.15H147.069C147.795 31.15 148.169 31.37 148.169 31.81C148.169 32.272 147.817 32.514 147.135 32.514L144.517 32.58C143.615 32.602 142.801 31.986 142.185 31.37C141.767 30.952 142.009 30.6 142.515 30.776C143.373 31.106 144.165 31.15 145.045 31.15ZM168.352 32.712C168.88 32.646 168.792 32.404 169.32 32.404C170.09 32.404 170.794 32.448 171.3 32.69C171.63 32.844 171.542 33.218 171.3 33.394C171.146 33.548 170.992 33.658 170.904 33.988C169.738 38.432 166.086 42.084 161.95 44.262C161.532 44.504 161.224 44.482 161.07 44.24C160.96 44.042 161.026 43.756 161.4 43.492C164.92 41.094 168.286 37.508 168.88 33.636L165.734 33.79C165.118 33.834 164.656 33.966 164.326 34.164C164.216 34.23 164.106 34.274 163.996 34.274C163.6 34.274 162.61 33.812 162.082 33.526C161.664 33.284 161.378 33.13 161.378 32.888C161.378 32.756 161.488 32.69 161.708 32.69C162.412 32.69 163.292 32.844 164.788 32.844C166.13 32.844 167.23 32.8 168.352 32.712ZM176.426 30.446V43.624C176.426 45.208 176.382 49.08 175.26 49.08C174.93 49.08 174.622 48.794 174.622 47.452V30.094C174.38 29.786 173.39 29.258 172.444 28.972C171.894 28.796 171.938 28.334 172.554 28.334C173.962 28.334 175.106 28.554 176.184 28.884C176.954 29.126 176.426 29.83 176.426 30.446Z" fill="#AFC0EB"/>
<defs>
<linearGradient id="paint0_linear_58_33" x1="12" y1="75.5844" x2="255.005" y2="-6.42537" gradientUnits="userSpaceOnUse">
<stop stop-color="#474D67"/>
<stop offset="1" stop-color="#A7B7F5"/>
</linearGradient>
</defs>
</svg>
