<svg width="85" height="31" viewBox="0 0 85 31" fill="none" xmlns="http://www.w3.org/2000/svg">
<path d="M4.6032 31H0.604195L10.3652 0.899998H14.3642L9.8492 14.789H23.4802L27.9952 0.899998H31.9942L22.2332 31H18.2342L23.1792 15.778H9.5482L4.6032 31ZM26.8073 31L36.5683 0.899998H40.5673L30.8063 31H26.8073ZM39.3727 31H35.3737L45.1347 0.899998H62.7217L61.1737 5.673C59.2817 3.05 56.3577 1.889 52.1437 1.889H48.8327L44.6187 14.789H54.8097L54.5087 15.778H44.3177L39.3727 31ZM60.6628 31H56.6638L66.4248 0.899998H84.0118L82.4638 5.673C80.5718 3.05 77.6478 1.889 73.4338 1.889H70.1228L65.9088 14.789H76.0998L75.7988 15.778H65.6078L60.6628 31Z" fill="url(#paint0_linear_0_43)"/>
<defs>
<linearGradient id="paint0_linear_0_43" x1="-2" y1="16" x2="76.1977" y2="17.1405" gradientUnits="userSpaceOnUse">
<stop stop-color="#E1E9FE"/>
<stop offset="1" stop-color="white"/>
</linearGradient>
</defs>
</svg>
