<svg width="111" height="18" viewBox="0 0 111 18" fill="none" xmlns="http://www.w3.org/2000/svg">
<path d="M8.82175 4.956C7.74175 4.956 6.91375 5.604 6.91375 6.468C6.91375 7.35 7.72375 7.926 8.82175 7.926C9.97375 7.926 10.7478 7.35 10.7478 6.468C10.7478 5.604 9.97375 4.956 8.82175 4.956ZM8.82175 4.074C10.7838 4.074 12.1878 5.1 12.1878 6.468C12.1878 7.836 10.7838 8.808 8.82175 8.808C6.94975 8.808 5.47375 7.836 5.47375 6.468C5.47375 5.1 6.94975 4.074 8.82175 4.074ZM6.62575 0.671999C7.03975 0.762 7.45375 0.852 8.26375 0.852H10.3878C11.0538 0.852 11.2518 1.05 11.2518 1.392C11.2518 1.626 11.1438 1.95 10.4418 1.95H7.83175C7.09375 1.95 6.42775 1.536 5.92375 1.032C5.79775 0.905999 5.72575 0.797999 5.72575 0.707999C5.72575 0.581999 5.79775 0.509999 5.95975 0.509999C6.08575 0.509999 6.31975 0.6 6.62575 0.671999ZM11.3058 2.634C11.5758 2.58 11.6838 2.58 11.8458 2.49C12.2058 2.292 12.4938 2.22 12.8718 2.22C13.2858 2.22 13.6998 2.274 14.0958 2.382C14.4018 2.472 14.5458 2.652 14.5458 2.922C14.5458 3.192 14.3478 3.426 13.8438 3.426C11.9358 3.426 8.62375 3.462 7.45375 3.516C6.87775 3.534 6.42775 3.57 6.12175 3.624C5.81575 3.678 5.54575 3.768 5.32975 3.93C5.23975 3.984 5.13175 4.02 5.04175 4.02C4.62775 4.02 3.51175 3.534 3.07975 3.192C2.89975 3.066 2.80975 2.94 2.80975 2.814C2.80975 2.688 2.88175 2.616 3.02575 2.616C3.25975 2.616 3.58375 2.634 4.01575 2.688C4.35775 2.742 5.13175 2.778 5.86975 2.778C8.01175 2.778 10.2978 2.778 11.3058 2.634ZM13.7358 9.708C14.0238 9.564 14.4558 9.402 14.8698 9.402C15.2478 9.402 15.8778 9.438 16.3098 9.582C16.5798 9.672 16.7058 9.852 16.7058 10.158C16.7058 10.464 16.5078 10.77 15.9138 10.77C14.9958 10.77 14.0778 10.716 13.1598 10.716C10.5498 10.716 8.17375 10.752 5.77975 10.842C5.22175 10.86 4.75375 10.878 4.44775 10.932C4.14175 10.986 3.87175 11.094 3.65575 11.256C3.56575 11.31 3.45775 11.346 3.36775 11.346C2.97175 11.346 1.71175 10.86 1.09975 10.338C0.97375 10.248 0.90175 10.14 0.90175 10.014C0.90175 9.888 0.97375 9.834 1.13575 9.834C1.44175 9.834 1.99975 9.888 2.43175 9.942C2.95375 9.996 4.51975 10.032 7.05775 10.032C8.51575 10.032 10.7118 9.996 13.0338 9.852C13.3218 9.834 13.5558 9.798 13.7358 9.708ZM11.8458 12.552C12.0078 12.462 12.1518 12.426 12.2778 12.426C12.5118 12.426 12.7998 12.444 13.1418 12.498C13.4478 12.552 13.7718 12.624 13.7718 12.858C13.7718 12.93 13.7358 13.038 13.6638 13.182C13.5918 13.308 13.5198 13.452 13.5198 13.596C13.5018 14.082 13.5198 14.622 13.4658 15.126C13.4118 15.702 13.2678 17.448 12.5298 17.448C12.1878 17.448 12.0618 17.016 12.0618 16.566V13.47C10.1898 13.488 8.53375 13.452 7.09375 13.614C6.82375 13.65 6.55375 13.758 6.30175 13.92C6.21175 13.974 6.10375 14.01 6.01375 14.01C5.65375 14.01 4.46575 13.524 4.03375 13.182C3.85375 13.056 3.76375 12.93 3.76375 12.804C3.76375 12.696 3.83575 12.642 3.99775 12.642C4.21375 12.642 4.48375 12.66 4.91575 12.714C5.25775 12.768 5.99575 12.786 6.76975 12.786C8.04775 12.786 8.31775 12.768 9.28975 12.768C10.8018 12.768 11.5038 12.714 11.8458 12.552ZM30.6635 2.274V6.864C30.8975 6.864 31.0775 6.846 31.2035 6.828C31.4015 6.81 31.5635 6.756 31.7255 6.63C31.9955 6.432 32.2115 6.306 32.5535 6.306C32.8415 6.306 33.3635 6.342 33.7415 6.486C34.0115 6.576 34.1375 6.738 34.1375 7.008C34.1375 7.296 33.9215 7.548 33.4175 7.548L30.6635 7.602V8.754C30.6635 9.888 30.6815 13.218 29.6735 13.218C29.3855 13.218 29.1875 12.75 29.1875 11.886V1.986C29.0075 1.752 28.0715 1.248 27.2615 1.014C27.1355 0.977999 27.0815 0.905999 27.0815 0.815999C27.0815 0.671999 27.2255 0.545999 27.5675 0.545999C28.6475 0.545999 29.5835 0.725999 30.4655 0.995999C30.6995 1.068 30.8075 1.194 30.8075 1.392C30.8075 1.59 30.6635 1.914 30.6635 2.274ZM21.6275 2.832C21.6275 2.634 22.0055 2.598 22.2035 2.598C22.7615 2.598 23.8055 3.048 24.3455 3.444C24.6155 3.66 24.7235 3.786 24.7235 4.002C24.7235 4.272 24.5435 4.812 24.2555 5.37C24.0575 5.766 23.8055 6.162 23.5355 6.54C24.0215 6.9 24.3995 7.206 24.7055 7.404C25.0475 7.638 25.1915 7.692 25.4255 7.692C25.5695 7.692 25.6595 7.692 25.7855 7.782C25.9115 7.854 26.1455 8.052 26.3075 8.25C26.7575 8.808 27.1715 9.438 27.1535 9.924C27.1535 10.194 26.9555 10.374 26.6855 10.356C26.4875 10.356 26.4155 10.302 26.1995 10.086L23.0675 7.134C21.7535 8.736 20.0615 10.032 18.6215 10.77C17.9375 11.112 17.5775 10.536 18.1355 10.122C20.0435 8.844 22.4915 6.414 23.0675 4.182C22.7975 3.678 22.4915 3.39 21.8255 3.048C21.6995 2.994 21.6275 2.922 21.6275 2.832ZM24.6155 13.506V15.594C24.6155 16.026 24.8495 16.134 25.2095 16.134C26.5775 16.134 27.2615 16.116 28.2695 16.062C28.8455 16.044 29.0615 16.008 29.2595 15.864C29.5295 15.648 29.9075 15.504 30.2675 15.504C30.6455 15.504 31.3655 15.576 31.6535 15.666C31.9415 15.756 32.0675 15.972 32.0675 16.188C32.0675 16.494 31.9055 16.8 31.2755 16.8L25.3355 16.854C23.8775 16.854 23.1575 16.674 23.1575 15.432V13.146C22.7795 12.876 22.2215 12.732 21.6455 12.642C21.4475 12.588 21.4295 12.534 21.4295 12.408C21.4295 12.174 22.0595 12.084 22.7615 12.084C23.3195 12.084 23.8055 12.138 24.2555 12.228C24.5615 12.3 24.7055 12.444 24.7055 12.678C24.7055 12.948 24.6155 13.236 24.6155 13.506ZM51.1781 11.04C51.4481 11.022 51.6461 10.968 51.7721 10.896C51.8981 10.842 52.0061 10.806 52.1141 10.806C52.2401 10.806 52.5641 10.788 52.8701 10.842C53.3921 10.896 53.6441 11.022 53.6441 11.238C53.6441 11.328 53.5901 11.454 53.4641 11.616C53.3561 11.76 53.2841 11.904 53.2661 12.066L52.7441 15.648C53.2301 15.774 53.3561 15.936 53.3561 16.152C53.3561 16.422 53.1761 16.602 52.4741 16.602L46.9841 16.692L46.8581 17.034C46.7321 17.304 46.5701 17.43 46.3541 17.43C46.1201 17.43 45.9221 17.286 45.9041 16.872L45.5621 12.156C45.3641 11.814 44.9681 11.688 44.2661 11.454C44.1761 11.418 44.1221 11.364 44.1221 11.274C44.1221 11.148 44.2841 11.058 44.6261 11.004C44.8961 10.95 45.2561 10.95 45.5441 10.968C46.0661 11.022 46.4981 11.058 46.9121 11.184C48.3521 11.184 50.4401 11.094 51.1781 11.04ZM53.5361 2.274V6.036C53.5361 7.53 53.4101 8.97 53.1761 9.672C53.0501 10.05 52.8521 10.23 52.5821 10.23C52.3121 10.23 52.0601 10.014 52.0601 8.808V6.216C50.4221 6.36 49.9901 6.468 49.7741 6.576C49.6841 6.63 49.5941 6.666 49.5041 6.666C49.1621 6.666 48.4961 6.36 48.0641 6C47.8841 5.856 47.7941 5.73 47.7941 5.622C47.7941 5.532 47.8661 5.478 48.0281 5.478C48.3881 5.478 48.9461 5.568 49.7201 5.568C50.2241 5.568 51.2141 5.514 52.0601 5.424V1.986C51.8801 1.752 50.9441 1.248 50.1341 1.014C50.0081 0.977999 49.9541 0.905999 49.9541 0.815999C49.9541 0.671999 50.0981 0.545999 50.4401 0.545999C51.5201 0.545999 52.4561 0.725999 53.3381 0.995999C53.5721 1.068 53.6801 1.194 53.6801 1.392C53.6801 1.59 53.5361 1.914 53.5361 2.274ZM43.5101 2.472C43.5101 2.274 43.8881 2.238 44.0861 2.238C44.6441 2.238 45.6881 2.688 46.2281 3.084C46.4981 3.3 46.6061 3.426 46.6061 3.642C46.6061 3.912 46.4261 4.452 46.1381 5.01C45.9041 5.424 45.6701 5.784 45.4361 6.126C45.7961 6.396 46.1021 6.612 46.3361 6.738C46.6961 6.972 46.8401 7.008 47.0741 7.008C47.2181 7.008 47.3081 7.008 47.4341 7.08C47.5601 7.152 47.8121 7.35 47.9741 7.548C48.4601 8.07 48.8741 8.7 48.8741 9.186C48.8741 9.492 48.7301 9.636 48.4241 9.636C48.2261 9.636 48.1541 9.582 47.9201 9.384L44.9501 6.756C43.6541 8.268 42.0521 9.33 40.6841 10.05C40.0001 10.392 39.6221 9.78 40.1981 9.402C41.9441 8.286 44.3741 6.072 44.9501 3.822C44.6801 3.318 44.3741 3.03 43.7081 2.688C43.5821 2.634 43.5101 2.562 43.5101 2.472ZM51.6641 11.814L47.0741 11.94L47.1101 15.882L51.6101 15.81L51.6641 11.814ZM66.2568 2.868C66.2568 2.778 66.2208 2.706 66.1308 2.616C65.9328 2.418 65.7708 2.238 65.9148 2.094C66.0588 1.95 66.3468 2.004 66.6168 2.076C66.8148 2.13 67.0488 2.22 67.2468 2.364C67.5888 2.634 67.4808 2.994 67.2108 3.21C68.2908 3.336 69.0648 3.804 69.5868 4.47C69.6408 4.416 69.7128 4.398 69.8208 4.398C70.1808 4.398 70.7568 4.488 71.4948 4.488C72.0528 4.488 73.1688 4.452 74.0328 4.308V1.986C73.8528 1.752 72.9168 1.248 72.1068 1.014C71.9808 0.977999 71.9268 0.905999 71.9268 0.815999C71.9268 0.671999 72.0708 0.545999 72.4128 0.545999C73.4928 0.545999 74.4288 0.725999 75.3108 0.995999C75.5448 1.068 75.6528 1.194 75.6528 1.392C75.6528 1.59 75.5088 1.914 75.5088 2.274V6.936C75.5088 8.43 75.3828 9.87 75.1488 10.572C75.0228 10.95 74.8248 11.13 74.5548 11.13C74.2848 11.13 74.0328 10.914 74.0328 9.708V8.124C72.1788 8.268 71.8368 8.34 71.5848 8.484C71.4228 8.538 71.3328 8.574 71.2968 8.574C70.9548 8.574 70.2888 8.232 69.8568 7.89C69.2808 8.916 68.1108 9.582 66.5808 9.582C64.3668 9.582 62.9448 8.196 62.9448 6.378C62.9448 4.704 64.1328 3.426 66.0228 3.192C66.1848 3.102 66.2568 2.994 66.2568 2.868ZM67.6428 14.226C67.6428 12.444 69.1908 11.13 71.3868 11.13C73.6008 11.13 75.1488 12.426 75.1488 14.226C75.1488 16.026 73.6008 17.304 71.3868 17.304C69.1908 17.304 67.6428 16.026 67.6428 14.226ZM66.5808 4.074C65.2128 4.074 64.4028 5.064 64.4028 6.378C64.4028 7.692 65.2128 8.664 66.5808 8.664C67.9488 8.664 68.7768 7.692 68.7768 6.378C68.7768 5.064 67.9488 4.074 66.5808 4.074ZM69.0828 14.226C69.0828 15.468 70.0008 16.332 71.3868 16.332C72.8268 16.332 73.6908 15.504 73.6908 14.208C73.6908 12.966 72.8268 12.066 71.3868 12.066C70.0008 12.066 69.0828 12.93 69.0828 14.226ZM71.2968 5.604C70.9548 5.604 70.3248 5.316 69.8928 4.974C70.1268 5.388 70.2348 5.856 70.2348 6.378C70.2348 6.72 70.1808 7.062 70.0728 7.386C70.4328 7.404 70.9008 7.458 71.4948 7.458C72.0528 7.458 73.1688 7.422 74.0328 7.278V5.154C72.1788 5.298 71.8368 5.37 71.5848 5.514C71.4228 5.568 71.3328 5.604 71.2968 5.604ZM85.4705 12.444V12.948C87.0545 12.732 88.6205 12.426 90.0605 12.066V1.986C89.8625 1.734 89.0525 1.302 88.2785 1.068C87.8285 0.923999 87.8645 0.545999 88.3685 0.545999C89.5205 0.545999 90.4565 0.725999 91.3385 0.995999C91.9685 1.194 91.5365 1.77 91.5365 2.274V8.322C91.8065 8.322 92.0585 8.304 92.1845 8.286C92.7605 8.232 92.8145 7.764 93.5345 7.764C93.8225 7.764 94.2545 7.8 94.6325 7.944C94.9025 8.034 95.0285 8.196 95.0285 8.466C95.0285 8.754 94.8125 9.006 94.3085 9.006L91.5365 9.06V13.056C91.5365 14.352 91.5005 17.52 90.5825 17.52C90.3125 17.52 90.0605 17.286 90.0605 16.188V12.804C87.8465 13.434 85.3445 13.902 82.0145 14.28C81.6365 14.334 81.4745 14.37 81.3125 14.496C81.1505 14.622 81.0605 14.622 80.9345 14.622C80.5385 14.622 79.0625 13.974 78.5765 13.596C78.4865 13.524 78.4505 13.434 78.4505 13.344C78.4505 13.2 78.5225 13.128 78.6845 13.128C79.0265 13.128 80.0345 13.272 81.3305 13.272C82.1765 13.272 83.0585 13.218 84.0665 13.128L84.0125 12.048C83.7965 11.832 83.3105 11.634 82.8065 11.508C82.6805 11.472 82.6085 11.4 82.6085 11.292C82.6085 11.202 82.6445 11.13 82.7345 11.094C82.8605 11.04 83.0945 11.022 83.3825 11.022C83.8685 11.022 84.6245 11.022 85.1285 11.148C85.4345 11.238 85.5785 11.382 85.5785 11.58C85.5785 11.778 85.4705 12.174 85.4705 12.444ZM80.9705 8.052C80.9705 6.702 82.2665 5.64 84.1385 5.64C86.0105 5.64 87.3065 6.702 87.3065 8.052C87.3065 9.402 86.0105 10.464 84.1385 10.464C82.2485 10.464 80.9705 9.402 80.9705 8.052ZM87.1085 3.804C87.3785 3.804 88.0625 3.912 88.3145 4.002C88.5125 4.092 88.6205 4.254 88.6205 4.47C88.6205 4.668 88.4765 4.974 87.8285 4.974C84.8945 4.974 82.6265 5.046 81.9965 5.136C81.6905 5.19 81.5465 5.262 81.3125 5.406C81.2225 5.46 81.1325 5.478 81.0245 5.478C80.6285 5.478 79.6745 5.064 79.3505 4.776C79.1165 4.614 79.0625 4.506 79.0625 4.38C79.0625 4.272 79.1345 4.218 79.2785 4.218C79.6565 4.218 80.1425 4.344 81.8705 4.344C82.7165 4.344 84.8225 4.344 85.7945 4.2C86.0645 4.146 86.2805 4.11 86.5145 3.948C86.7125 3.822 86.8385 3.804 87.1085 3.804ZM82.4825 8.052C82.4825 8.898 83.1125 9.582 84.1385 9.582C85.1645 9.582 85.7945 8.898 85.7945 8.052C85.7945 7.206 85.1645 6.522 84.1385 6.522C83.1125 6.522 82.4825 7.206 82.4825 8.052ZM85.3265 3.408L83.4005 3.426C82.6265 3.426 81.9965 3.012 81.5105 2.508C81.3845 2.382 81.3305 2.274 81.3305 2.184C81.3305 2.058 81.4025 1.986 81.5465 1.986C81.6725 1.986 81.8885 2.076 82.2305 2.148C82.6085 2.238 83.0405 2.31 83.8505 2.31H85.2725C85.8485 2.31 86.1365 2.49 86.1365 2.832C86.1365 3.192 85.9205 3.408 85.3265 3.408ZM108.482 16.008V1.806C108.068 1.446 107.42 1.176 106.916 1.014C106.79 0.959999 106.718 0.887999 106.718 0.815999C106.718 0.671999 106.88 0.545999 107.222 0.545999C108.104 0.545999 108.986 0.707999 109.706 0.995999C110.282 1.23 109.904 1.662 109.904 2.166V13.056C109.904 14.568 109.796 15.9 109.562 16.764C109.436 17.25 109.274 17.52 108.968 17.52C108.68 17.52 108.482 17.232 108.482 16.008ZM106.7 3.462V12.03C106.7 13.47 106.628 14.802 106.412 15.738C106.286 16.242 106.07 16.494 105.782 16.494C105.512 16.494 105.314 16.206 105.314 14.982V8.178C104.126 8.322 104.09 8.412 103.946 8.502C103.82 8.574 103.694 8.61 103.568 8.61C103.334 8.61 102.578 8.178 102.308 7.962C102.11 7.8 102.056 7.71 102.056 7.584C102.056 7.476 102.128 7.422 102.254 7.422C102.596 7.422 103.388 7.512 103.964 7.512C104.378 7.512 104.864 7.476 105.314 7.422V3.102C104.9 2.76 104.27 2.472 103.784 2.31C103.658 2.256 103.586 2.184 103.586 2.112C103.586 1.968 103.766 1.842 104.072 1.842C104.936 1.842 105.746 1.986 106.502 2.292C107.096 2.544 106.7 2.904 106.7 3.462ZM100.994 4.542C101.246 4.506 101.48 4.416 101.714 4.29C101.84 4.2 102.02 4.164 102.272 4.164C102.56 4.164 103.118 4.218 103.388 4.344C103.586 4.434 103.694 4.596 103.694 4.812C103.694 5.01 103.55 5.298 102.902 5.298C102.2 5.298 101.57 5.298 101.012 5.316C100.85 6.234 100.598 7.062 100.22 7.908C100.706 8.502 101.12 8.952 101.48 9.312C101.786 9.6 101.876 9.672 102.146 9.744C102.488 9.834 102.668 10.086 102.866 10.428C103.172 10.986 103.406 11.688 103.406 12.066C103.406 12.3 103.262 12.516 102.974 12.516C102.776 12.516 102.614 12.408 102.452 12.174L99.8603 8.646C98.9783 10.302 97.7363 11.616 96.2243 12.696C95.7023 13.074 95.2343 12.57 95.7203 12.138C97.7543 10.266 99.1763 7.872 99.5363 5.334L98.7083 5.388C98.4383 5.424 98.2223 5.496 98.0603 5.604C97.9703 5.658 97.8803 5.694 97.7903 5.694C97.5023 5.694 96.6743 5.316 96.2783 5.028C96.0803 4.866 96.0263 4.758 96.0263 4.632C96.0263 4.542 96.0983 4.488 96.2603 4.488C96.7823 4.488 97.4483 4.596 98.8343 4.596C99.3923 4.596 100.598 4.596 100.994 4.542Z" fill="url(#paint0_linear_58_217)"/>
<defs>
<linearGradient id="paint0_linear_58_217" x1="-2.66223e-09" y1="8.5" x2="112.057" y2="13.8055" gradientUnits="userSpaceOnUse">
<stop stop-color="#E1E9FE"/>
<stop offset="1" stop-color="#6678A9"/>
</linearGradient>
</defs>
</svg>
