<svg width="106" height="18" viewBox="0 0 106 18" fill="none" xmlns="http://www.w3.org/2000/svg">
<path d="M8.86667 4.956C7.78667 4.956 6.95867 5.604 6.95867 6.468C6.95867 7.35 7.76867 7.926 8.86667 7.926C10.0187 7.926 10.7927 7.35 10.7927 6.468C10.7927 5.604 10.0187 4.956 8.86667 4.956ZM8.86667 4.074C10.8287 4.074 12.2327 5.1 12.2327 6.468C12.2327 7.836 10.8287 8.808 8.86667 8.808C6.99467 8.808 5.51867 7.836 5.51867 6.468C5.51867 5.1 6.99467 4.074 8.86667 4.074ZM6.67067 0.671999C7.08467 0.762 7.49867 0.852 8.30867 0.852H10.4327C11.0987 0.852 11.2967 1.05 11.2967 1.392C11.2967 1.626 11.1887 1.95 10.4867 1.95H7.87667C7.13867 1.95 6.47267 1.536 5.96867 1.032C5.84267 0.905999 5.77067 0.797999 5.77067 0.707999C5.77067 0.581999 5.84267 0.509999 6.00467 0.509999C6.13067 0.509999 6.36467 0.6 6.67067 0.671999ZM11.3507 2.634C11.6207 2.58 11.7287 2.58 11.8907 2.49C12.2507 2.292 12.5387 2.22 12.9167 2.22C13.3307 2.22 13.7447 2.274 14.1407 2.382C14.4467 2.472 14.5907 2.652 14.5907 2.922C14.5907 3.192 14.3927 3.426 13.8887 3.426C11.9807 3.426 8.66867 3.462 7.49867 3.516C6.92267 3.534 6.47267 3.57 6.16667 3.624C5.86067 3.678 5.59067 3.768 5.37467 3.93C5.28467 3.984 5.17667 4.02 5.08667 4.02C4.67267 4.02 3.55667 3.534 3.12467 3.192C2.94467 3.066 2.85467 2.94 2.85467 2.814C2.85467 2.688 2.92667 2.616 3.07067 2.616C3.30467 2.616 3.62867 2.634 4.06067 2.688C4.40267 2.742 5.17667 2.778 5.91467 2.778C8.05667 2.778 10.3427 2.778 11.3507 2.634ZM13.7807 9.708C14.0687 9.564 14.5007 9.402 14.9147 9.402C15.2927 9.402 15.9227 9.438 16.3547 9.582C16.6247 9.672 16.7507 9.852 16.7507 10.158C16.7507 10.464 16.5527 10.77 15.9587 10.77C15.0407 10.77 14.1227 10.716 13.2047 10.716C10.5947 10.716 8.21867 10.752 5.82467 10.842C5.26667 10.86 4.79867 10.878 4.49267 10.932C4.18667 10.986 3.91667 11.094 3.70067 11.256C3.61067 11.31 3.50267 11.346 3.41267 11.346C3.01667 11.346 1.75667 10.86 1.14467 10.338C1.01867 10.248 0.946672 10.14 0.946672 10.014C0.946672 9.888 1.01867 9.834 1.18067 9.834C1.48667 9.834 2.04467 9.888 2.47667 9.942C2.99867 9.996 4.56467 10.032 7.10267 10.032C8.56067 10.032 10.7567 9.996 13.0787 9.852C13.3667 9.834 13.6007 9.798 13.7807 9.708ZM11.8907 12.552C12.0527 12.462 12.1967 12.426 12.3227 12.426C12.5567 12.426 12.8447 12.444 13.1867 12.498C13.4927 12.552 13.8167 12.624 13.8167 12.858C13.8167 12.93 13.7807 13.038 13.7087 13.182C13.6367 13.308 13.5647 13.452 13.5647 13.596C13.5467 14.082 13.5647 14.622 13.5107 15.126C13.4567 15.702 13.3127 17.448 12.5747 17.448C12.2327 17.448 12.1067 17.016 12.1067 16.566V13.47C10.2347 13.488 8.57867 13.452 7.13867 13.614C6.86867 13.65 6.59867 13.758 6.34667 13.92C6.25667 13.974 6.14867 14.01 6.05867 14.01C5.69867 14.01 4.51067 13.524 4.07867 13.182C3.89867 13.056 3.80867 12.93 3.80867 12.804C3.80867 12.696 3.88067 12.642 4.04267 12.642C4.25867 12.642 4.52867 12.66 4.96067 12.714C5.30267 12.768 6.04067 12.786 6.81467 12.786C8.09267 12.786 8.36267 12.768 9.33467 12.768C10.8467 12.768 11.5487 12.714 11.8907 12.552ZM30.7084 2.274V6.864C30.9424 6.864 31.1224 6.846 31.2484 6.828C31.4464 6.81 31.6084 6.756 31.7704 6.63C32.0404 6.432 32.2564 6.306 32.5984 6.306C32.8864 6.306 33.4084 6.342 33.7864 6.486C34.0564 6.576 34.1824 6.738 34.1824 7.008C34.1824 7.296 33.9664 7.548 33.4624 7.548L30.7084 7.602V8.754C30.7084 9.888 30.7264 13.218 29.7184 13.218C29.4304 13.218 29.2324 12.75 29.2324 11.886V1.986C29.0524 1.752 28.1164 1.248 27.3064 1.014C27.1804 0.977999 27.1264 0.905999 27.1264 0.815999C27.1264 0.671999 27.2704 0.545999 27.6124 0.545999C28.6924 0.545999 29.6284 0.725999 30.5104 0.995999C30.7444 1.068 30.8524 1.194 30.8524 1.392C30.8524 1.59 30.7084 1.914 30.7084 2.274ZM21.6724 2.832C21.6724 2.634 22.0504 2.598 22.2484 2.598C22.8064 2.598 23.8504 3.048 24.3904 3.444C24.6604 3.66 24.7684 3.786 24.7684 4.002C24.7684 4.272 24.5884 4.812 24.3004 5.37C24.1024 5.766 23.8504 6.162 23.5804 6.54C24.0664 6.9 24.4444 7.206 24.7504 7.404C25.0924 7.638 25.2364 7.692 25.4704 7.692C25.6144 7.692 25.7044 7.692 25.8304 7.782C25.9564 7.854 26.1904 8.052 26.3524 8.25C26.8024 8.808 27.2164 9.438 27.1984 9.924C27.1984 10.194 27.0004 10.374 26.7304 10.356C26.5324 10.356 26.4604 10.302 26.2444 10.086L23.1124 7.134C21.7984 8.736 20.1064 10.032 18.6664 10.77C17.9824 11.112 17.6224 10.536 18.1804 10.122C20.0884 8.844 22.5364 6.414 23.1124 4.182C22.8424 3.678 22.5364 3.39 21.8704 3.048C21.7444 2.994 21.6724 2.922 21.6724 2.832ZM24.6604 13.506V15.594C24.6604 16.026 24.8944 16.134 25.2544 16.134C26.6224 16.134 27.3064 16.116 28.3144 16.062C28.8904 16.044 29.1064 16.008 29.3044 15.864C29.5744 15.648 29.9524 15.504 30.3124 15.504C30.6904 15.504 31.4104 15.576 31.6984 15.666C31.9864 15.756 32.1124 15.972 32.1124 16.188C32.1124 16.494 31.9504 16.8 31.3204 16.8L25.3804 16.854C23.9224 16.854 23.2024 16.674 23.2024 15.432V13.146C22.8244 12.876 22.2664 12.732 21.6904 12.642C21.4924 12.588 21.4744 12.534 21.4744 12.408C21.4744 12.174 22.1044 12.084 22.8064 12.084C23.3644 12.084 23.8504 12.138 24.3004 12.228C24.6064 12.3 24.7504 12.444 24.7504 12.678C24.7504 12.948 24.6604 13.236 24.6604 13.506ZM38.2581 7.818V4.236C37.9701 3.93 37.4841 3.696 36.9261 3.534C36.8361 3.516 36.7821 3.444 36.7821 3.354C36.7821 3.21 36.9441 3.12 37.2861 3.084C38.0601 3.012 38.7801 3.048 39.5181 3.318H44.0001C44.3061 3.318 44.5941 3.228 44.8281 3.066C45.3861 2.688 46.4481 2.796 47.1141 2.976C47.7801 3.174 47.6181 4.074 46.8801 4.074L39.7701 4.128V7.98C39.7701 8.394 39.9861 8.52 40.3641 8.52C41.4801 8.52 43.1541 8.502 44.1621 8.448C44.7381 8.43 44.9541 8.394 45.1521 8.25C45.7821 7.728 46.6641 7.854 47.5101 8.052C48.1761 8.196 48.1581 9.258 47.1681 9.258L40.2561 9.312C38.7621 9.312 38.2581 8.952 38.2581 7.818ZM43.7841 11.706V13.686C44.8641 13.632 45.9261 13.614 46.9341 13.56C47.7801 13.506 47.9421 13.11 48.7701 13.11C49.4001 13.11 50.6061 13.11 50.6061 13.848C50.6061 14.154 50.4081 14.478 49.8141 14.478C48.8961 14.478 47.9781 14.424 47.0601 14.424C44.4681 14.424 42.1821 14.46 39.8601 14.55C39.0681 14.568 38.1141 14.622 37.5561 14.982C37.4661 15.036 37.3581 15.072 37.2681 15.072C36.8361 15.072 35.6301 14.55 35.0001 14.028C34.7301 13.83 34.6941 13.524 35.0361 13.524C35.3421 13.524 35.9001 13.578 36.3321 13.632C37.7901 13.758 40.0401 13.794 42.3621 13.74L42.3441 11.22C42.0741 11.022 41.6781 10.932 41.2281 10.806C41.0841 10.77 41.0121 10.698 41.0121 10.572C41.0121 10.338 41.6061 10.302 41.7861 10.302C42.2001 10.302 42.8661 10.32 43.4241 10.446C43.7301 10.518 43.8741 10.662 43.8741 10.878C43.8741 11.166 43.7841 11.274 43.7841 11.706ZM61.2568 2.868C61.2568 2.778 61.2208 2.706 61.1308 2.616C60.9328 2.418 60.7708 2.238 60.9148 2.094C61.0588 1.95 61.3468 2.004 61.6168 2.076C61.8148 2.13 62.0488 2.22 62.2468 2.364C62.5888 2.634 62.4808 2.994 62.2108 3.21C63.2908 3.336 64.0648 3.804 64.5868 4.47C64.6408 4.416 64.7128 4.398 64.8208 4.398C65.1808 4.398 65.7568 4.488 66.4948 4.488C67.0528 4.488 68.1688 4.452 69.0328 4.308V1.986C68.8528 1.752 67.9168 1.248 67.1068 1.014C66.9808 0.977999 66.9268 0.905999 66.9268 0.815999C66.9268 0.671999 67.0708 0.545999 67.4128 0.545999C68.4928 0.545999 69.4288 0.725999 70.3108 0.995999C70.5448 1.068 70.6528 1.194 70.6528 1.392C70.6528 1.59 70.5088 1.914 70.5088 2.274V6.936C70.5088 8.43 70.3828 9.87 70.1488 10.572C70.0228 10.95 69.8248 11.13 69.5548 11.13C69.2848 11.13 69.0328 10.914 69.0328 9.708V8.124C67.1788 8.268 66.8368 8.34 66.5848 8.484C66.4228 8.538 66.3328 8.574 66.2968 8.574C65.9548 8.574 65.2888 8.232 64.8568 7.89C64.2808 8.916 63.1108 9.582 61.5808 9.582C59.3668 9.582 57.9448 8.196 57.9448 6.378C57.9448 4.704 59.1328 3.426 61.0228 3.192C61.1848 3.102 61.2568 2.994 61.2568 2.868ZM62.6428 14.226C62.6428 12.444 64.1908 11.13 66.3868 11.13C68.6008 11.13 70.1488 12.426 70.1488 14.226C70.1488 16.026 68.6008 17.304 66.3868 17.304C64.1908 17.304 62.6428 16.026 62.6428 14.226ZM61.5808 4.074C60.2128 4.074 59.4028 5.064 59.4028 6.378C59.4028 7.692 60.2128 8.664 61.5808 8.664C62.9488 8.664 63.7768 7.692 63.7768 6.378C63.7768 5.064 62.9488 4.074 61.5808 4.074ZM64.0828 14.226C64.0828 15.468 65.0008 16.332 66.3868 16.332C67.8268 16.332 68.6908 15.504 68.6908 14.208C68.6908 12.966 67.8268 12.066 66.3868 12.066C65.0008 12.066 64.0828 12.93 64.0828 14.226ZM66.2968 5.604C65.9548 5.604 65.3248 5.316 64.8928 4.974C65.1268 5.388 65.2348 5.856 65.2348 6.378C65.2348 6.72 65.1808 7.062 65.0728 7.386C65.4328 7.404 65.9008 7.458 66.4948 7.458C67.0528 7.458 68.1688 7.422 69.0328 7.278V5.154C67.1788 5.298 66.8368 5.37 66.5848 5.514C66.4228 5.568 66.3328 5.604 66.2968 5.604ZM80.4705 12.444V12.948C82.0545 12.732 83.6205 12.426 85.0605 12.066V1.986C84.8625 1.734 84.0525 1.302 83.2785 1.068C82.8285 0.923999 82.8645 0.545999 83.3685 0.545999C84.5205 0.545999 85.4565 0.725999 86.3385 0.995999C86.9685 1.194 86.5365 1.77 86.5365 2.274V8.322C86.8065 8.322 87.0585 8.304 87.1845 8.286C87.7605 8.232 87.8145 7.764 88.5345 7.764C88.8225 7.764 89.2545 7.8 89.6325 7.944C89.9025 8.034 90.0285 8.196 90.0285 8.466C90.0285 8.754 89.8125 9.006 89.3085 9.006L86.5365 9.06V13.056C86.5365 14.352 86.5005 17.52 85.5825 17.52C85.3125 17.52 85.0605 17.286 85.0605 16.188V12.804C82.8465 13.434 80.3445 13.902 77.0145 14.28C76.6365 14.334 76.4745 14.37 76.3125 14.496C76.1505 14.622 76.0605 14.622 75.9345 14.622C75.5385 14.622 74.0625 13.974 73.5765 13.596C73.4865 13.524 73.4505 13.434 73.4505 13.344C73.4505 13.2 73.5225 13.128 73.6845 13.128C74.0265 13.128 75.0345 13.272 76.3305 13.272C77.1765 13.272 78.0585 13.218 79.0665 13.128L79.0125 12.048C78.7965 11.832 78.3105 11.634 77.8065 11.508C77.6805 11.472 77.6085 11.4 77.6085 11.292C77.6085 11.202 77.6445 11.13 77.7345 11.094C77.8605 11.04 78.0945 11.022 78.3825 11.022C78.8685 11.022 79.6245 11.022 80.1285 11.148C80.4345 11.238 80.5785 11.382 80.5785 11.58C80.5785 11.778 80.4705 12.174 80.4705 12.444ZM75.9705 8.052C75.9705 6.702 77.2665 5.64 79.1385 5.64C81.0105 5.64 82.3065 6.702 82.3065 8.052C82.3065 9.402 81.0105 10.464 79.1385 10.464C77.2485 10.464 75.9705 9.402 75.9705 8.052ZM82.1085 3.804C82.3785 3.804 83.0625 3.912 83.3145 4.002C83.5125 4.092 83.6205 4.254 83.6205 4.47C83.6205 4.668 83.4765 4.974 82.8285 4.974C79.8945 4.974 77.6265 5.046 76.9965 5.136C76.6905 5.19 76.5465 5.262 76.3125 5.406C76.2225 5.46 76.1325 5.478 76.0245 5.478C75.6285 5.478 74.6745 5.064 74.3505 4.776C74.1165 4.614 74.0625 4.506 74.0625 4.38C74.0625 4.272 74.1345 4.218 74.2785 4.218C74.6565 4.218 75.1425 4.344 76.8705 4.344C77.7165 4.344 79.8225 4.344 80.7945 4.2C81.0645 4.146 81.2805 4.11 81.5145 3.948C81.7125 3.822 81.8385 3.804 82.1085 3.804ZM77.4825 8.052C77.4825 8.898 78.1125 9.582 79.1385 9.582C80.1645 9.582 80.7945 8.898 80.7945 8.052C80.7945 7.206 80.1645 6.522 79.1385 6.522C78.1125 6.522 77.4825 7.206 77.4825 8.052ZM80.3265 3.408L78.4005 3.426C77.6265 3.426 76.9965 3.012 76.5105 2.508C76.3845 2.382 76.3305 2.274 76.3305 2.184C76.3305 2.058 76.4025 1.986 76.5465 1.986C76.6725 1.986 76.8885 2.076 77.2305 2.148C77.6085 2.238 78.0405 2.31 78.8505 2.31H80.2725C80.8485 2.31 81.1365 2.49 81.1365 2.832C81.1365 3.192 80.9205 3.408 80.3265 3.408ZM103.482 16.008V1.806C103.068 1.446 102.42 1.176 101.916 1.014C101.79 0.959999 101.718 0.887999 101.718 0.815999C101.718 0.671999 101.88 0.545999 102.222 0.545999C103.104 0.545999 103.986 0.707999 104.706 0.995999C105.282 1.23 104.904 1.662 104.904 2.166V13.056C104.904 14.568 104.796 15.9 104.562 16.764C104.436 17.25 104.274 17.52 103.968 17.52C103.68 17.52 103.482 17.232 103.482 16.008ZM101.7 3.462V12.03C101.7 13.47 101.628 14.802 101.412 15.738C101.286 16.242 101.07 16.494 100.782 16.494C100.512 16.494 100.314 16.206 100.314 14.982V8.178C99.1263 8.322 99.0903 8.412 98.9463 8.502C98.8203 8.574 98.6943 8.61 98.5683 8.61C98.3343 8.61 97.5783 8.178 97.3083 7.962C97.1103 7.8 97.0563 7.71 97.0563 7.584C97.0563 7.476 97.1283 7.422 97.2543 7.422C97.5963 7.422 98.3883 7.512 98.9643 7.512C99.3783 7.512 99.8643 7.476 100.314 7.422V3.102C99.9003 2.76 99.2703 2.472 98.7843 2.31C98.6583 2.256 98.5863 2.184 98.5863 2.112C98.5863 1.968 98.7663 1.842 99.0723 1.842C99.9363 1.842 100.746 1.986 101.502 2.292C102.096 2.544 101.7 2.904 101.7 3.462ZM95.9943 4.542C96.2463 4.506 96.4803 4.416 96.7143 4.29C96.8403 4.2 97.0203 4.164 97.2723 4.164C97.5603 4.164 98.1183 4.218 98.3883 4.344C98.5863 4.434 98.6943 4.596 98.6943 4.812C98.6943 5.01 98.5503 5.298 97.9023 5.298C97.2003 5.298 96.5703 5.298 96.0123 5.316C95.8503 6.234 95.5983 7.062 95.2203 7.908C95.7063 8.502 96.1203 8.952 96.4803 9.312C96.7863 9.6 96.8763 9.672 97.1463 9.744C97.4883 9.834 97.6683 10.086 97.8663 10.428C98.1723 10.986 98.4063 11.688 98.4063 12.066C98.4063 12.3 98.2623 12.516 97.9743 12.516C97.7763 12.516 97.6143 12.408 97.4523 12.174L94.8603 8.646C93.9783 10.302 92.7363 11.616 91.2243 12.696C90.7023 13.074 90.2343 12.57 90.7203 12.138C92.7543 10.266 94.1763 7.872 94.5363 5.334L93.7083 5.388C93.4383 5.424 93.2223 5.496 93.0603 5.604C92.9703 5.658 92.8803 5.694 92.7903 5.694C92.5023 5.694 91.6743 5.316 91.2783 5.028C91.0803 4.866 91.0263 4.758 91.0263 4.632C91.0263 4.542 91.0983 4.488 91.2603 4.488C91.7823 4.488 92.4483 4.596 93.8343 4.596C94.3923 4.596 95.5983 4.596 95.9943 4.542Z" fill="url(#paint0_linear_0_44)"/>
<defs>
<linearGradient id="paint0_linear_0_44" x1="-2.54338e-09" y1="8.5" x2="107.075" y2="13.3433" gradientUnits="userSpaceOnUse">
<stop stop-color="#E1E9FE"/>
<stop offset="1" stop-color="#6678A9"/>
</linearGradient>
</defs>
</svg>
